<?xml version="1.0" encoding="UTF-8"?>
<svg width="26px" height="26px" viewBox="0 0 26 26" version="1.1" xmlns="http://www.w3.org/2000/svg" xmlns:xlink="http://www.w3.org/1999/xlink">
    <!-- Generator: Sketch 46.2 (44496) - http://www.bohemiancoding.com/sketch -->
    <title>favicon</title>
    <desc>Created with Sketch.</desc>
    <defs></defs>
    <g id="Page-1" stroke="none" stroke-width="1" fill="none" fill-rule="evenodd">
        <g id="favicon">
            <rect id="Rectangle-2" fill="#222222" x="0" y="0" width="26" height="26"></rect>
            <path d="M5.64,9 C5.2666648,9.5933363 4.9733344,10.2633296 4.76,11.01 C4.5466656,11.7566704 4.44,12.529996 4.44,13.33 C4.44,14.130004 4.5466656,14.9033296 4.76,15.65 C4.9733344,16.3966704 5.2666648,17.0666637 5.64,17.66 L4.26,17.66 C3.8533313,17.0799971 3.54166775,16.418337 3.325,15.675 C3.10833225,14.9316629 3,14.1500041 3,13.33 C3,12.5099959 3.10833225,11.728337 3.325,10.985 C3.54166775,10.241663 3.8533313,9.5800029 4.26,9 L5.64,9 Z M7.98,12.01 C8.1666676,11.676665 8.4099985,11.4233342 8.71,11.25 C9.0100015,11.0766658 9.359998,10.9866667 9.76,10.98 L9.76,12.43 C9.7066664,12.4233333 9.6266672,12.42 9.52,12.42 C9.0466643,12.42 8.67166805,12.5483321 8.395,12.805 C8.11833195,13.0616679 7.98,13.4033312 7.98,13.83 L7.98,16.42 L6.44,16.42 L6.44,11.04 L7.98,11.04 L7.98,12.01 Z M13.72,16.42 L13.72,15.79 C13.5399991,16.0166678 13.3066681,16.1899994 13.02,16.31 C12.7333319,16.4300006 12.4033352,16.49 12.03,16.49 C11.4633305,16.49 11.013335,16.3350015 10.68,16.025 C10.346665,15.7149984 10.18,15.3100025 10.18,14.81 C10.18,14.3033308 10.3583315,13.9083347 10.715,13.625 C11.0716685,13.3416653 11.5766634,13.1966667 12.23,13.19 L13.71,13.19 L13.71,13.09 C13.71,12.8033319 13.6150009,12.5816674 13.425,12.425 C13.234999,12.2683325 12.9566685,12.19 12.59,12.19 C12.0899975,12.19 11.5566695,12.3466651 10.99,12.66 L10.51,11.6 C10.9366688,11.3866656 11.3366648,11.2300005 11.71,11.13 C12.0833352,11.0299995 12.4933311,10.98 12.94,10.98 C13.6600036,10.98 14.2183313,11.1499983 14.615,11.49 C15.0116687,11.8300017 15.2133333,12.3033303 15.22,12.91 L15.23,16.42 L13.72,16.42 Z M12.46,15.39 C12.7800016,15.39 13.0566655,15.3133341 13.29,15.16 C13.5233345,15.0066659 13.6633331,14.8133345 13.71,14.58 L13.71,14.1 L12.5,14.1 C12.1999985,14.1 11.978334,14.1483328 11.835,14.245 C11.6916659,14.3416671 11.62,14.4966656 11.62,14.71 C11.62,14.9166677 11.6949992,15.081666 11.845,15.205 C11.9950007,15.3283339 12.1999987,15.39 12.46,15.39 Z M18.1,12.01 C18.2866676,11.676665 18.5299985,11.4233342 18.83,11.25 C19.1300015,11.0766658 19.479998,10.9866667 19.88,10.98 L19.88,12.43 C19.8266664,12.4233333 19.7466672,12.42 19.64,12.42 C19.1666643,12.42 18.7916681,12.5483321 18.515,12.805 C18.2383319,13.0616679 18.1,13.4033312 18.1,13.83 L18.1,16.42 L16.56,16.42 L16.56,11.04 L18.1,11.04 L18.1,12.01 Z M21.42,9 C21.8266687,9.5800029 22.1383323,10.241663 22.355,10.985 C22.5716677,11.728337 22.68,12.5099959 22.68,13.33 C22.68,14.1500041 22.5716677,14.9316629 22.355,15.675 C22.1383323,16.418337 21.8266687,17.0799971 21.42,17.66 L20.04,17.66 C20.4133352,17.0666637 20.7066656,16.3966704 20.92,15.65 C21.1333344,14.9033296 21.24,14.130004 21.24,13.33 C21.24,12.529996 21.1333344,11.7566704 20.92,11.01 C20.7066656,10.2633296 20.4133352,9.5933363 20.04,9 L21.42,9 Z" id="(rar)" fill="#F2F2F2"></path>
        </g>
    </g>
</svg>